<svg viewBox="0 0 1323 420" xmlns="http://www.w3.org/2000/svg" xmlns:xlink="http://www.w3.org/1999/xlink"><clipPath id="a"><path d="m706-5.57h259v249h-259z"/></clipPath><clipPath id="b"><path d="m842.29 95.41a2.53 2.53 0 0 1 -2.51-2.22l-1.69-13.87a2.53 2.53 0 0 1 3.5-2.64l12.84 5.47a2.53 2.53 0 0 1 .53 4.35l-11.14 8.4a2.52 2.52 0 0 1 -1.53.51zm1.35-12.35.63 5.16 4.15-3.13z"/></clipPath><clipPath id="c"><path d="m748.44 137.63a2.53 2.53 0 0 1 -1.83-4.27l.26-.28 3.7 3.45-.29.31a2.52 2.52 0 0 1 -1.83.79"/></clipPath><clipPath id="d"><path d="m754 131.77a2.53 2.53 0 0 1 -1.83-4.28l.59-.62a2.53 2.53 0 0 1 3.66 3.5l-.59.61a2.52 2.52 0 0 1 -1.83.78m5.88-6.14a2.53 2.53 0 0 1 -1.82-4.29l.59-.61a2.53 2.53 0 1 1 3.64 3.51l-.59.61a2.52 2.52 0 0 1 -1.82.78m5.91-6.12a2.53 2.53 0 0 1 -1.81-4.3l.59-.61a2.53 2.53 0 0 1 3.63 3.53l-.59.61a2.52 2.52 0 0 1 -1.81.77m5.93-6.09a2.53 2.53 0 0 1 -1.81-4.3l.59-.61a2.53 2.53 0 0 1 3.61 3.54l-.59.61a2.52 2.52 0 0 1 -1.81.76m6-6.07a2.53 2.53 0 0 1 -1.8-4.31l.6-.61a2.53 2.53 0 1 1 3.6 3.56l-.6.61a2.52 2.52 0 0 1 -1.8.75m6-6a2.53 2.53 0 0 1 -1.87-4.34l.61-.61a2.53 2.53 0 0 1 3.54 3.61l-.59.59a2.52 2.52 0 0 1 -1.79.75m6-6a2.53 2.53 0 0 1 -1.75-4.34l.6-.6a2.53 2.53 0 0 1 3.53 3.54l-.6.6a2.52 2.52 0 0 1 -1.78.74m6-6a2.53 2.53 0 0 1 -1.71-4.28l.6-.6a2.53 2.53 0 0 1 3.55 3.6l-.6.6a2.52 2.52 0 0 1 -1.78.73m6.06-6a2.53 2.53 0 0 1 -1.74-4.33l.61-.59a2.53 2.53 0 1 1 3.51 3.59l-.61.6a2.52 2.52 0 0 1 -1.77.72m6.08-5.94a2.53 2.53 0 0 1 -1.75-4.38l.61-.59a2.53 2.53 0 1 1 3.52 3.63l-.61.59a2.52 2.52 0 0 1 -1.76.72m6.11-5.91a2.53 2.53 0 0 1 -1.75-4.35l.62-.6a2.53 2.53 0 0 1 3.49 3.66l-.61.58a2.52 2.52 0 0 1 -1.75.71m6.14-5.88a2.53 2.53 0 0 1 -1.74-4.37l.62-.59a2.53 2.53 0 1 1 3.47 3.68l-.61.58a2.52 2.52 0 0 1 -1.74.7m6.17-5.85a2.53 2.53 0 0 1 -1.74-4.37l.62-.58a2.53 2.53 0 0 1 3.47 3.68l-.6.56a2.52 2.52 0 0 1 -1.73.69m6.2-5.82a2.53 2.53 0 0 1 -1.73-4.38l.62-.58a2.53 2.53 0 0 1 3.44 3.71l-.62.57a2.52 2.52 0 0 1 -1.73.68m6.22-5.78a2.53 2.53 0 0 1 -1.67-4.36l.62-.58a2.53 2.53 0 0 1 3.38 3.73l-.62.57a2.52 2.52 0 0 1 -1.71.67m6.26-5.75a2.53 2.53 0 0 1 -1.7-4.4l.63-.57a2.53 2.53 0 0 1 3.41 3.74l-.63.57a2.52 2.52 0 0 1 -1.7.66"/></clipPath><clipPath id="e"><path d="m851.22 36.67a2.53 2.53 0 0 1 -1.69-4.41l.32-.29a2.53 2.53 0 0 1 3.37 3.77l-.3.27a2.52 2.52 0 0 1 -1.69.65"/></clipPath><clipPath id="f"><path d="m738 148.77a2.53 2.53 0 0 1 -1.86-4.24s3.84-4.2 10.43-11.18a2.53 2.53 0 0 1 3.67 3.48c-6.56 7-10.35 11.08-10.38 11.12a2.52 2.52 0 0 1 -1.86.82"/></clipPath><clipPath id="g"><path d="m709.06 137.51a2.53 2.53 0 0 1 -2.26-3.66l.19-.37a2.53 2.53 0 1 1 4.52 2.26l-.19.37a2.53 2.53 0 0 1 -2.26 1.4"/></clipPath><clipPath id="h"><path d="m712.72 130.16a2.53 2.53 0 0 1 -2.26-3.66l.39-.78a2.53 2.53 0 1 1 4.52 2.26l-.39.78a2.53 2.53 0 0 1 -2.26 1.4m3.86-7.75a2.53 2.53 0 0 1 -2.26-3.66l.39-.78a2.53 2.53 0 1 1 4.52 2.26l-.39.77a2.53 2.53 0 0 1 -2.26 1.4m3.86-7.75a2.53 2.53 0 0 1 -2.26-3.66l.39-.78a2.53 2.53 0 1 1 4.53 2.26l-.38.77a2.53 2.53 0 0 1 -2.26 1.4m3.86-7.75a2.53 2.53 0 0 1 -2.26-3.66l.39-.77a2.53 2.53 0 1 1 4.52 2.26l-.39.77a2.53 2.53 0 0 1 -2.26 1.4m3.86-7.75a2.53 2.53 0 0 1 -2.26-3.66l.39-.77a2.53 2.53 0 1 1 4.5 2.29l-.39.78a2.53 2.53 0 0 1 -2.26 1.4m3.84-7.77a2.53 2.53 0 0 1 -2.26-3.66l.39-.77a2.53 2.53 0 1 1 4.52 2.26l-.39.78a2.53 2.53 0 0 1 -2.26 1.4m3.86-7.75a2.53 2.53 0 0 1 -2.24-3.67l.39-.78a2.53 2.53 0 1 1 4.52 2.26l-.39.78a2.53 2.53 0 0 1 -2.26 1.4m3.86-7.75a2.53 2.53 0 0 1 -2.26-3.66l.39-.78a2.53 2.53 0 1 1 4.52 2.26l-.39.78a2.53 2.53 0 0 1 -2.26 1.4"/></clipPath><clipPath id="i"><path d="m743.6 68.16a2.53 2.53 0 0 1 -2.26-3.66l.19-.37a2.53 2.53 0 1 1 4.52 2.26l-.19.37a2.53 2.53 0 0 1 -2.26 1.4"/></clipPath><clipPath id="j"><path d="m799 204.86a2.53 2.53 0 0 1 -1.22-4.75l.37-.2a2.53 2.53 0 0 1 2.44 4.43l-.37.2a2.51 2.51 0 0 1 -1.22.32"/></clipPath><clipPath id="k"><path d="m805.86 201.05a2.53 2.53 0 0 1 -1.22-4.75l.73-.4a2.53 2.53 0 0 1 2.44 4.44l-.73.4a2.52 2.52 0 0 1 -1.22.31m7.26-4a2.53 2.53 0 0 1 -1.22-4.75l.73-.4a2.53 2.53 0 0 1 2.44 4.44l-.73.4a2.52 2.52 0 0 1 -1.22.31m7.26-4a2.53 2.53 0 0 1 -1.22-4.75l.73-.4a2.53 2.53 0 0 1 2.44 4.44l-.73.4a2.52 2.52 0 0 1 -1.22.31m7.26-4a2.53 2.53 0 0 1 -1.22-4.75l.73-.4a2.53 2.53 0 0 1 2.44 4.43l-.73.4a2.51 2.51 0 0 1 -1.22.32m7.26-4a2.53 2.53 0 0 1 -1.22-4.75l.73-.4a2.53 2.53 0 0 1 2.44 4.43l-.73.4a2.51 2.51 0 0 1 -1.22.32m7.26-4a2.53 2.53 0 0 1 -1.22-4.75l.73-.4a2.53 2.53 0 0 1 2.44 4.44l-.73.4a2.51 2.51 0 0 1 -1.22.31m7.26-4a2.53 2.53 0 0 1 -1.22-4.75l.73-.4a2.53 2.53 0 0 1 2.44 4.44l-.73.4a2.52 2.52 0 0 1 -1.22.31m7.26-4a2.53 2.53 0 0 1 -1.22-4.75l.73-.4a2.53 2.53 0 0 1 2.44 4.43l-.73.4a2.51 2.51 0 0 1 -1.22.32m7.26-4a2.53 2.53 0 0 1 -1.22-4.75l.73-.4a2.53 2.53 0 0 1 2.44 4.44l-.73.4a2.52 2.52 0 0 1 -1.22.31m7.26-4a2.53 2.53 0 0 1 -1.22-4.75l.73-.4a2.53 2.53 0 0 1 2.44 4.44l-.73.4a2.52 2.52 0 0 1 -1.22.31m7.26-4a2.53 2.53 0 0 1 -1.22-4.75l.73-.4a2.53 2.53 0 0 1 2.44 4.44l-.73.4a2.52 2.52 0 0 1 -1.22.31m7.26-4a2.53 2.53 0 0 1 -1.22-4.75l.73-.4a2.53 2.53 0 0 1 2.44 4.43l-.73.4a2.52 2.52 0 0 1 -1.22.32m7.26-4a2.53 2.53 0 0 1 -1.22-4.75l.73-.4a2.53 2.53 0 0 1 2.44 4.44l-.73.4a2.52 2.52 0 0 1 -1.2.26"/></clipPath><clipPath id="l"><path d="m900.21 149a2.53 2.53 0 0 1 -1.22-4.75l.37-.2a2.53 2.53 0 0 1 2.43 4.44l-.37.2a2.52 2.52 0 0 1 -1.21.31"/></clipPath><clipPath id="m"><path d="m785.69 212.18a2.53 2.53 0 0 1 -1.22-4.75l13.28-7.33a2.53 2.53 0 0 1 2.44 4.43l-13.28 7.33a2.51 2.51 0 0 1 -1.22.31"/></clipPath><clipPath id="n"><path d="m788.47 243.17a2.53 2.53 0 0 1 -.46-5l.41-.08a2.53 2.53 0 0 1 .92 5l-.41.08a2.55 2.55 0 0 1 -.46 0"/></clipPath><clipPath id="o"><path d="m796.53 241.69a2.53 2.53 0 0 1 -.46-5l.85-.16a2.53 2.53 0 0 1 .92 5l-.85.16a2.54 2.54 0 0 1 -.46 0m8.51-1.57a2.53 2.53 0 0 1 -.46-5l.85-.16a2.53 2.53 0 0 1 .92 5l-.85.16a2.55 2.55 0 0 1 -.46 0m8.5-1.57a2.53 2.53 0 0 1 -.46-5l.85-.16a2.53 2.53 0 0 1 .92 5l-.85.16a2.47 2.47 0 0 1 -.46 0m8.46-1.55a2.53 2.53 0 0 1 -.46-5l.85-.16a2.53 2.53 0 0 1 .92 5l-.85.16a2.55 2.55 0 0 1 -.46 0m8.5-1.57a2.53 2.53 0 0 1 -.46-5l.85-.16a2.53 2.53 0 0 1 .92 5l-.85.16a2.47 2.47 0 0 1 -.46 0m8.51-1.57a2.53 2.53 0 0 1 -.46-5l.85-.16a2.53 2.53 0 0 1 .92 5l-.85.16a2.55 2.55 0 0 1 -.46 0m8.5-1.57a2.53 2.53 0 0 1 -.46-5l.85-.16a2.53 2.53 0 0 1 .92 5l-.85.16a2.55 2.55 0 0 1 -.46 0m8.51-1.57a2.53 2.53 0 0 1 -.46-5l.85-.16a2.53 2.53 0 0 1 .92 5l-.85.16a2.55 2.55 0 0 1 -.46 0"/></clipPath><clipPath id="p"><path d="m864.57 229.13a2.53 2.53 0 0 1 -.46-5l.41-.08a2.53 2.53 0 0 1 .92 5l-.41.08a2.56 2.56 0 0 1 -.46 0"/></clipPath><clipPath id="q"><path d="m799.69 152.8a2.53 2.53 0 0 1 -1.43-4.62l.35-.24a2.53 2.53 0 0 1 2.83 4.19l-.34.23a2.51 2.51 0 0 1 -1.42.44"/></clipPath><clipPath id="r"><path d="m806.23 148.38a2.53 2.53 0 0 1 -1.41-4.63l.68-.46a2.53 2.53 0 0 1 2.83 4.2l-.69.47a2.51 2.51 0 0 1 -1.41.43m6.9-4.64a2.53 2.53 0 0 1 -1.41-4.64l.69-.46a2.53 2.53 0 0 1 2.82 4.21l-.69.46a2.51 2.51 0 0 1 -1.4.43m6.91-4.62a2.53 2.53 0 0 1 -1.4-4.64l.69-.46a2.53 2.53 0 0 1 2.8 4.21l-.69.46a2.51 2.51 0 0 1 -1.4.42m6.92-4.6a2.53 2.53 0 0 1 -1.4-4.64l.69-.46a2.53 2.53 0 0 1 2.79 4.23l-.69.46a2.52 2.52 0 0 1 -1.39.42m6.93-4.58a2.53 2.53 0 0 1 -1.39-4.65l.69-.46a2.53 2.53 0 0 1 2.78 4.23l-.69.46a2.52 2.52 0 0 1 -1.39.42m6.94-4.56a2.53 2.53 0 0 1 -1.38-4.65l.69-.45a2.53 2.53 0 0 1 2.77 4.24l-.7.46a2.51 2.51 0 0 1 -1.38.41m7-4.55a2.53 2.53 0 0 1 -1.38-4.65l.7-.46a2.53 2.53 0 0 1 2.75 4.25l-.69.45a2.51 2.51 0 0 1 -1.38.41m7-4.53a2.53 2.53 0 0 1 -1.38-4.66l.7-.45a2.53 2.53 0 0 1 2.75 4.25l-.7.45a2.51 2.51 0 0 1 -1.37.41m7-4.51a2.53 2.53 0 0 1 -1.37-4.66l.7-.45a2.53 2.53 0 0 1 2.74 4.26l-.7.45a2.52 2.52 0 0 1 -1.37.4m7-4.5a2.53 2.53 0 0 1 -1.37-4.66l.7-.45a2.53 2.53 0 0 1 2.73 4.26l-.7.45a2.52 2.52 0 0 1 -1.36.4m7-4.48a2.53 2.53 0 0 1 -1.36-4.67l.69-.44a2.53 2.53 0 0 1 2.73 4.26l-.71.45a2.52 2.52 0 0 1 -1.36.4m7-4.46a2.53 2.53 0 0 1 -1.36-4.67l.71-.45a2.53 2.53 0 0 1 2.7 4.28l-.7.44a2.52 2.52 0 0 1 -1.35.4m7-4.45a2.53 2.53 0 0 1 -1.35-4.67l.71-.45a2.53 2.53 0 0 1 2.69 4.28l-.7.44a2.51 2.51 0 0 1 -1.35.39m7-4.43a2.53 2.53 0 0 1 -1.34-4.68l.7-.44a2.53 2.53 0 0 1 2.68 4.29l-.7.44a2.53 2.53 0 0 1 -1.34.39"/></clipPath><clipPath id="s"><path d="m903.8 85.07a2.53 2.53 0 0 1 -1.35-4.68l.37-.23a2.53 2.53 0 0 1 2.67 4.3l-.34.21a2.53 2.53 0 0 1 -1.34.39"/></clipPath><clipPath id="t"><path d="m776.25 168.94a2.53 2.53 0 0 1 -1.46-4.6c.08-.06 8.56-6 23.48-16.17a2.53 2.53 0 0 1 2.84 4.19c-14.88 10.1-23.32 16.05-23.4 16.11a2.51 2.51 0 0 1 -1.45.46"/></clipPath><clipPath id="u"><path d="m771.21 52.33h-.36a2.53 2.53 0 0 1 -2.15-2.86l2.3-16.12a2.53 2.53 0 1 1 5 .71l-2.27 16.1a2.53 2.53 0 0 1 -2.5 2.18"/></clipPath><clipPath id="v"><path d="m780.39 45.42h-.36l-16.03-2.3a2.53 2.53 0 0 1 .71-5l16.07 2.27a2.53 2.53 0 0 1 -.35 5"/></clipPath><clipPath id="w"><path d="m931.66 53.19h-.36a11.47 11.47 0 0 1 3.2-22.71 2.53 2.53 0 0 1 -.71 5 6.4 6.4 0 0 0 -1.79 12.67 2.53 2.53 0 0 1 -.35 5"/></clipPath><clipPath id="x"><path d="m954.4 110.68 8.49-3.43a1.38 1.38 0 0 1 1.89 1.48l-1.28 9.08a1.38 1.38 0 0 1 -2.22.9l-7.21-5.65a1.39 1.39 0 0 1 .33-2.38"/></clipPath><clipPath id="y"><path d="m856.67 205.87h-.36l-17.67-2.5a2.53 2.53 0 0 1 -2.15-2.86 11.45 11.45 0 1 1 22.68 3.21 2.53 2.53 0 0 1 -2.5 2.18m-14.3-7.11 11.63 1.62a6.42 6.42 0 0 0 -1.06-2.17 6.4 6.4 0 0 0 -10.58.52"/></clipPath><clipPath id="z"><path d="m928.41 181.32-1.3 9.22a3 3 0 0 1 -3.44 2.59l-9.21-1.3a3 3 0 0 1 -2.59-3.44l1.3-9.22a3 3 0 0 1 3.44-2.59l9.21 1.3a3 3 0 0 1 2.59 3.44"/></clipPath><clipPath id="A"><path d="m827.99 1.82h13.89v13.91h-13.89z"/></clipPath><clipPath id="B"><path d="m706 1.43h259v249h-259z"/></clipPath><clipPath id="C"><path d="m827 .43h16v17h-16z"/></clipPath><clipPath id="D"><path d="m829.38 13a6.95 6.95 0 1 0 1.37-9.74 6.94 6.94 0 0 0 -1.37 9.74"/></clipPath><clipPath id="E"><path d="m827 1.43h15v15h-15z"/></clipPath><clipPath id="F"><path d="m346 132.73h185.19v192.63h-185.19z"/></clipPath><clipPath id="G"><path d="m346 132.43h186v193h-186z"/></clipPath><clipPath id="H"><path d="m529 240.88a7.19 7.19 0 0 1 2.18 5.23v41a7.18 7.18 0 0 1 -2.18 5.23 7 7 0 0 1 -5.17 2.2h-23.91v23.39a7.18 7.18 0 0 1 -2.17 5.23 7 7 0 0 1 -5.17 2.2h-50.58a7 7 0 0 1 -5.17-2.2 7.17 7.17 0 0 1 -2.17-5.23v-23.39h-81.32a7 7 0 0 1 -5.17-2.2 7.17 7.17 0 0 1 -2.18-5.23v-39.35a13.58 13.58 0 0 1 3-8.53l77-101.82a12.33 12.33 0 0 1 10.01-4.68h56.56a7 7 0 0 1 5.17 2.2 7.2 7.2 0 0 1 2.17 5.23v98.52h23.66a7.34 7.34 0 0 1 5.44 2.2zm-92.46-38.8-28.54 39.62h28.55z"/></clipPath><clipPath id="I"><path d="m503.57 334.43h-51.13a10.54 10.54 0 0 1 -7.64-3.23 10.67 10.67 0 0 1 -3.18-7.66v-20.18h-78.8a10.53 10.53 0 0 1 -7.64-3.23 10.67 10.67 0 0 1 -3.18-7.66v-39.67a17 17 0 0 1 3.74-10.69l77.85-102.71a15.78 15.78 0 0 1 12.8-6h57.18a10.57 10.57 0 0 1 7.63 3.22 10.71 10.71 0 0 1 3.19 7.66v95.93h20.52a10.89 10.89 0 0 1 7.91 3.22 10.71 10.71 0 0 1 3.18 7.66v41.34a10.69 10.69 0 0 1 -3.18 7.66 10.55 10.55 0 0 1 -7.64 3.23h-20.8v20.19a10.69 10.69 0 0 1 -3.18 7.66 10.55 10.55 0 0 1 -7.63 3.26zm-64.69-190.78-77.76 102.6a10.31 10.31 0 0 0 -2.34 6.55v39.67a3.82 3.82 0 0 0 1.21 2.88 3.7 3.7 0 0 0 2.81 1.22h85.59v27a3.82 3.82 0 0 0 1.21 2.88 3.7 3.7 0 0 0 2.81 1.22h51.13a3.71 3.71 0 0 0 2.81-1.21 3.83 3.83 0 0 0 1.22-2.88v-27h27.59a3.71 3.71 0 0 0 2.81-1.21 3.83 3.83 0 0 0 1.22-2.88v-41.36a3.85 3.85 0 0 0 -1.21-2.88 4 4 0 0 0 -3.09-1.22h-27.29v-102.71a3.85 3.85 0 0 0 -1.22-2.89 3.72 3.72 0 0 0 -2.81-1.21h-57.18a9 9 0 0 0 -7.51 3.43zm11.45 106.44h-38.9l38.9-53.85zm-25.62-6.79h18.83v-26.06z"/></clipPath><clipPath id="J"><path d="m966.83 240.23a7.16 7.16 0 0 1 2.17 5.21v40.87a7.15 7.15 0 0 1 -2.17 5.21 7 7 0 0 1 -5.16 2.19h-23.91v23.29a7.15 7.15 0 0 1 -2.17 5.21 7 7 0 0 1 -5.16 2.2h-50.53a7 7 0 0 1 -5.16-2.2 7.13 7.13 0 0 1 -2.17-5.21v-23.29h-81.24a7 7 0 0 1 -5.16-2.19 7.13 7.13 0 0 1 -2.17-5.21v-39.23a13.51 13.51 0 0 1 3-8.5l76.87-101.48a12.33 12.33 0 0 1 10.05-4.66h56.5a7 7 0 0 1 5.16 2.2 7.17 7.17 0 0 1 2.17 5.21v98.15h23.63a7.34 7.34 0 0 1 5.45 2.23zm-92.36-38.67-28.53 39.44h28.52z"/></clipPath><clipPath id="K"><path d="m790.1 133.19h193.34v200.6h-193.34z"/></clipPath><clipPath id="L"><path d="m790 132.43h194v202h-194z"/></clipPath><clipPath id="M"><path d="m941.15 333.79h-51a10.5 10.5 0 0 1 -7.61-3.22 10.65 10.65 0 0 1 -3.17-7.64v-20.15h-78.49a10.49 10.49 0 0 1 -7.61-3.22 10.65 10.65 0 0 1 -3.17-7.64v-39.6a17 17 0 0 1 3.73-10.67l77.58-102.51a15.72 15.72 0 0 1 12.76-6h57a10.53 10.53 0 0 1 7.61 3.22 10.7 10.7 0 0 1 3.18 7.65v95.74h20.45a10.85 10.85 0 0 1 7.88 3.22 10.69 10.69 0 0 1 3.17 7.64v41.26a10.67 10.67 0 0 1 -3.17 7.64 10.5 10.5 0 0 1 -7.61 3.22h-20.75v20.15a10.68 10.68 0 0 1 -3.17 7.64 10.51 10.51 0 0 1 -7.61 3.27zm-64.46-190.4-77.49 102.4a10.3 10.3 0 0 0 -2.33 6.54v39.6a3.81 3.81 0 0 0 1.21 2.87 3.69 3.69 0 0 0 2.8 1.22h85.3v26.92a3.81 3.81 0 0 0 1.21 2.87 3.69 3.69 0 0 0 2.8 1.22h51a3.69 3.69 0 0 0 2.8-1.21 3.83 3.83 0 0 0 1.21-2.88v-26.94h27.49a3.69 3.69 0 0 0 2.8-1.21 3.83 3.83 0 0 0 1.21-2.88v-41.25a3.84 3.84 0 0 0 -1.21-2.87 4 4 0 0 0 -3.08-1.21h-27.25v-102.53a3.85 3.85 0 0 0 -1.22-2.88 3.7 3.7 0 0 0 -2.8-1.21h-57a9 9 0 0 0 -7.45 3.42zm11.41 106.23h-38.77l38.77-53.74zm-25.53-6.78h18.76v-26z"/></clipPath><clipPath id="N"><path d="m668 260.13c-57.07 9.21-105 6.39-107-6.33 9.16 57.42 62.84 96.5 119.91 87.29s95.91-63.23 86.75-120.65c2 12.71-42.59 30.48-99.66 39.69"/></clipPath><clipPath id="O"><path d="m556.74 128.86h215.71v215.56h-215.71z"/></clipPath><clipPath id="P"><path d="m553 123.43h225v221h-225z"/></clipPath><clipPath id="Q"><path d="m664.38 344.42a108 108 0 1 1 17.31-1.42 109.39 109.39 0 0 1 -17.31 1.39m.29-209.33a101.76 101.76 0 0 0 -82.38 42 101.62 101.62 0 1 0 82.38-42"/></clipPath><clipPath id="R"><path d="m556 128.43h217v216h-217z"/></clipPath><clipPath id="S"><path d="m665.05 330.43a94.44 94.44 0 0 1 -47.51-12.81 3.09 3.09 0 0 1 -1.11-4.25 3.15 3.15 0 0 1 4.29-1.1 88.12 88.12 0 0 0 58.09 10.86c38.17-6.07 68.17-36.9 72.95-75a3.13 3.13 0 0 1 6.22.77c-5.12 40.79-37.26 73.83-78.17 80.34a94 94 0 0 1 -14.76 1.16"/></clipPath><clipPath id="T"><path d="m744 194.43a84.82 84.82 0 0 1 10 28"/></clipPath><clipPath id="U"><path d="m753.88 225.43a3.1 3.1 0 0 1 -3.08-2.55 82.77 82.77 0 0 0 -9.42-27 3 3 0 0 1 1.25-4.12 3.16 3.16 0 0 1 4.23 1.22 88.71 88.71 0 0 1 10.1 28.9 3 3 0 0 1 -2.59 3.48 3.25 3.25 0 0 1 -.5 0"/></clipPath><clipPath id="V"><path d="m715 162.43a87.5 87.5 0 0 1 20 19"/></clipPath><clipPath id="W"><path d="m735.88 185.43a3.11 3.11 0 0 1 -2.48-1.23 87.54 87.54 0 0 0 -20-19.06 3.13 3.13 0 0 1 3.53-5.16 93.76 93.76 0 0 1 21.47 20.42 3.13 3.13 0 0 1 -.58 4.39 3.1 3.1 0 0 1 -1.89.64"/></clipPath><clipPath id="X"><path d="m698.6 253.94a31.5 31.5 0 1 1 -36.09-26.11 31.5 31.5 0 0 1 36.09 26.11"/></clipPath><clipPath id="Y"><path d="m667.93 294.43a35 35 0 1 1 34.63-40.55 35 35 0 0 1 -29 40.1 35.49 35.49 0 0 1 -5.62.45m.09-63.72a28.71 28.71 0 1 0 28.34 24.17 28.79 28.79 0 0 0 -28.37-24.17"/></clipPath><clipPath id="Z"><path d="m670.69 277.22a17 17 0 1 1 14.09-19.48 17 17 0 0 1 -14.09 19.48"/></clipPath><clipPath id="aa"><path d="m667.49 280.43a20.51 20.51 0 1 1 3.26-.26 20.46 20.46 0 0 1 -3.26.26zm.02-34.67a14.17 14.17 0 1 0 2.24 28.17 14.17 14.17 0 0 0 -2.24-28.17z"/></clipPath><clipPath id="ab"><path d="m607.16 197.78c-5.52 5.81-9.93 12.77-14.67 12.65-4.71.17-7.83-12.71 1.8-23.63s23.16-9.58 23.65-5c.77 4.58-5.66 9.81-10.78 16"/></clipPath><g clip-path="url(#a)" opacity=".5"><g clip-path="url(#b)"><g clip-path="url(#a)"><path d="m833.07 71.49h27.89v28.93h-27.89z" fill="red"/></g></g><g clip-path="url(#c)"><g clip-path="url(#a)"><path d="m740.91 128.07h14.65v14.55h-14.65z" fill="red"/></g></g><g clip-path="url(#d)"><g clip-path="url(#a)"><path d="m746.46 31.74h106.63v105.03h-106.63z" fill="red"/></g></g><g clip-path="url(#e)"><g clip-path="url(#a)"><path d="m843.69 26.33h15.37v15.34h-15.37z" fill="red"/></g></g><g clip-path="url(#f)"><g clip-path="url(#a)"><path d="m730.5 127.56h25.46v26.21h-25.46z" fill="red"/></g></g><g clip-path="url(#g)"><g clip-path="url(#a)"><path d="m701.54 127.07h15.24v15.44h-15.24z" fill="red"/></g></g><g clip-path="url(#h)"><g clip-path="url(#a)"><path d="m705.2 65.07h42.46v70.09h-42.46z" fill="red"/></g></g><g clip-path="url(#i)"><g clip-path="url(#a)"><path d="m736.08 57.72h15.24v15.44h-15.24z" fill="red"/></g></g><g clip-path="url(#j)"><g clip-path="url(#a)"><path d="m791.43 194.59h15.42v15.27h-15.42z" fill="red"/></g></g><g clip-path="url(#k)"><g clip-path="url(#a)"><path d="m798.33 142.52h102.87v63.53h-102.87z" fill="red"/></g></g><g clip-path="url(#l)"><g clip-path="url(#a)"><path d="m892.68 138.72h15.42v15.27h-15.42z" fill="red"/></g></g><g clip-path="url(#m)"><g clip-path="url(#a)"><path d="m778.15 194.79h28.33v22.39h-28.33z" fill="red"/></g></g><g clip-path="url(#n)"><g clip-path="url(#a)"><path d="m780.94 233.03h15.47v15.14h-15.47z" fill="red"/></g></g><g clip-path="url(#o)"><g clip-path="url(#a)"><path d="m789.01 220.48h75.44v26.21h-75.44z" fill="red"/></g></g><g clip-path="url(#p)"><g clip-path="url(#a)"><path d="m857.05 218.99h15.47v15.14h-15.47z" fill="red"/></g></g><g clip-path="url(#q)"><g clip-path="url(#a)"><path d="m792.16 142.51h15.4v15.3h-15.4z" fill="red"/></g></g><g clip-path="url(#r)"><g clip-path="url(#a)"><path d="m798.7 78.98h106.3v74.4h-106.3z" fill="red"/></g></g><g clip-path="url(#s)"><g clip-path="url(#a)"><path d="m896.27 74.79h15.41v15.28h-15.41z" fill="red"/></g></g><g clip-path="url(#t)"><g clip-path="url(#a)"><path d="m768.72 142.74h38.5v31.2h-38.5z" fill="red"/></g></g><g clip-path="url(#u)"><g clip-path="url(#a)"><path d="m763.68 26.17h17.32v31.16h-17.32z" fill="red"/></g></g><g clip-path="url(#v)"><g clip-path="url(#a)"><path d="m756.78 33.08h31.13v17.34h-31.13z" fill="red"/></g></g><g clip-path="url(#w)"><g clip-path="url(#a)"><path d="m916.45 25.34h25.23v32.85h-25.23z" fill="red"/></g></g><g clip-path="url(#x)"><g clip-path="url(#a)"><path d="m948.53 102.15h21.26v21.85h-21.26z" fill="red"/></g></g><g clip-path="url(#y)"><g clip-path="url(#a)"><path d="m831.47 185.62h32.82v25.25h-32.82z" fill="red"/></g></g><g clip-path="url(#z)"><g clip-path="url(#a)"><path d="m906.84 171.55h26.6v26.62h-26.6z" fill="red"/></g></g><g clip-path="url(#A)"><g clip-path="url(#B)"><g clip-path="url(#C)"><g clip-path="url(#D)"><g clip-path="url(#E)"><path d="m822.99-3.18h23.89v23.91h-23.89z" fill="red"/></g></g></g></g></g></g><g clip-path="url(#F)"><g clip-path="url(#G)"><g clip-path="url(#H)"><g clip-path="url(#G)"><path d="m341 127.73h195.19v202.63h-195.19z" fill="yellow"/></g></g></g></g><g clip-path="url(#I)"><path d="m347 128.43h204v211h-204z"/></g><g clip-path="url(#J)"><path d="m779 127.43h195v202h-195z" fill="yellow"/></g><g clip-path="url(#K)"><g clip-path="url(#L)"><g clip-path="url(#M)"><g clip-path="url(#L)"><path d="m785.1 128.19h203.34v210.6h-203.34z"/></g></g></g></g><g clip-path="url(#N)"><path d="m556 215.43h218v132h-218z" fill="red"/></g><g clip-path="url(#O)"><g clip-path="url(#P)"><g clip-path="url(#Q)"><g clip-path="url(#R)"><path d="m551.74 123.86h225.71v225.56h-225.71z"/></g></g></g></g><g clip-path="url(#S)"><path d="m611 240.43h152v95h-152z"/></g><g clip-path="url(#T)"><path d="m739 189.43h20v38h-20z" fill="#eeecdb"/></g><g clip-path="url(#U)"><path d="m736 186.43h26v44h-26z"/></g><g clip-path="url(#V)"><path d="m710 157.43h30v29h-30z" fill="#eeecdb"/></g><g clip-path="url(#W)"><path d="m707 154.43h37v36h-37z"/></g><g clip-path="url(#X)"><path d="m631 222.43h73v73h-73z" fill="#fff"/></g><g clip-path="url(#Y)"><path d="m628 219.43h80v80h-80z"/></g><g clip-path="url(#Z)"><path d="m646 238.43h44v44h-44z" fill="red"/></g><g clip-path="url(#aa)"><path d="m642 234.43h51v51h-51z"/></g><g clip-path="url(#ab)"><path d="m583 173.43h40v42h-40z" fill=""/></g></svg>